<?xml version="1.0" encoding="iso-8859-1"?>
<!-- Uploaded to: SVG Repo, www.svgrepo.com, Generator: SVG Repo Mixer Tools -->
<svg height="800px" width="800px" version="1.1" id="Layer_1" xmlns="http://www.w3.org/2000/svg" xmlns:xlink="http://www.w3.org/1999/xlink" 
	 viewBox="0 0 512.001 512.001" xml:space="preserve">
<g>
	<path style="fill:#FFC61B;" d="M100.097,506.772H45.28C20.312,506.772,0,486.46,0,461.492V228.437
		c0-24.968,20.312-45.28,45.28-45.28h236.712c7.988,0,14.463,6.475,14.463,14.463s-6.475,14.463-14.463,14.463H45.28
		c-9.016,0-16.354,7.336-16.354,16.354v233.055c0,9.016,7.336,16.354,16.354,16.354h54.817c7.988,0,14.463,6.475,14.463,14.463
		C114.561,500.297,108.086,506.772,100.097,506.772z"/>
	<path style="fill:#FFC61B;" d="M466.72,506.772H178.621c-7.988,0-14.463-6.475-14.463-14.463c0-7.988,6.475-14.463,14.463-14.463
		h288.1c9.016,0,16.354-7.336,16.354-16.354V228.437c0-9.018-7.336-16.354-16.354-16.354h-66.129
		c-7.988,0-14.463-6.475-14.463-14.463c0-7.988,6.475-14.463,14.463-14.463h66.129c24.968,0,45.28,20.312,45.28,45.28v233.055
		C512,486.46,491.688,506.772,466.72,506.772z"/>
	<path style="fill:#FFC61B;" d="M123.304,311.44c-8.172,0-13.452,3.52-13.452,8.967v33.267H85.407v-33.267
		c0-5.448-5.281-8.967-13.452-8.967s-13.451,3.52-13.451,8.967v91.992c0,5.364,5.531,9.112,13.451,9.112s13.452-3.747,13.452-9.112
		V375.37h24.444v37.029c0,5.364,5.532,9.112,13.452,9.112s13.451-3.747,13.451-9.112v-91.992
		C136.755,314.96,131.476,311.44,123.304,311.44z"/>
	<path style="fill:#FFC61B;" d="M184.479,311.44c-24.251,0-37.606,12.894-37.606,36.306v38.329
		c0,23.412,13.355,36.306,37.606,36.306c24.345,0,37.752-12.894,37.752-36.306v-38.329
		C222.231,324.334,208.824,311.44,184.479,311.44z M173.776,347.746c0-8.387,3.402-12.294,10.703-12.294
		c7.3,0,10.849,4.022,10.849,12.294v38.329c0,8.273-3.549,12.294-10.849,12.294c-7.303,0-10.703-3.906-10.703-12.294
		L173.776,347.746L173.776,347.746z"/>
	<path style="fill:#FFC61B;" d="M295.561,311.44h-62.486c-6.161,0-8.969,6.297-8.969,12.149c0,7.324,3.688,12.44,8.969,12.44h17.791
		v76.37c0,5.364,5.531,9.112,13.451,9.112c7.92,0,13.452-3.747,13.452-9.112v-76.37h17.791c5.279,0,8.967-5.116,8.967-12.44
		C304.529,317.739,301.721,311.44,295.561,311.44z"/>
	<path style="fill:#FFC61B;" d="M372.648,335.45c5.281,0,8.969-4.997,8.969-12.151c0-5.712-2.806-11.86-8.969-11.86h-51.492
		c-7.068,0-12.005,3.747-12.005,9.112v91.848c0,5.364,4.936,9.112,12.005,9.112h51.492c6.161,0,8.969-6.148,8.969-11.86
		c0-7.154-3.688-12.149-8.969-12.149h-36.594v-20.25h19.525c5.888,0,8.969-5.385,8.969-10.703c0-6.37-3.772-10.992-8.969-10.992
		h-19.525v-20.105h36.594V335.45z"/>
	<path style="fill:#FFC61B;" d="M444.818,397.502H414.01v-77.095c0-5.448-5.281-8.967-13.452-8.967s-13.451,3.52-13.451,8.967
		v91.992c0,5.364,4.936,9.112,12.005,9.112h45.707c5.11,0,8.678-4.936,8.678-12.005
		C453.496,402.438,449.928,397.502,444.818,397.502z"/>
	<path style="fill:#FFC61B;" d="M148.628,275.126H74.275c-7.988,0-14.463-6.475-14.463-14.463s6.475-14.463,14.463-14.463h74.351
		c7.988,0,14.463,6.475,14.463,14.463S156.616,275.126,148.628,275.126z"/>
	<path style="fill:#FFC61B;" d="M111.451,272.849c-7.988,0-14.463-6.475-14.463-14.463V115.075c0-7.988,6.475-14.463,14.463-14.463
		s14.463,6.475,14.463,14.463v143.311C125.914,266.374,119.439,272.849,111.451,272.849z"/>
</g>
<polygon style="fill:#FEE187;" points="111.451,19.692 138.386,80.424 204.469,87.274 155.032,131.656 168.938,196.62 
	111.451,163.319 53.964,196.62 67.87,131.656 18.435,87.274 84.518,80.424 "/>
<g>
	<path style="fill:#FFC61B;" d="M168.937,211.084c-2.496,0-4.999-0.645-7.249-1.948l-50.237-29.102l-50.237,29.102
		c-4.951,2.868-11.125,2.547-15.752-0.814c-4.627-3.363-6.84-9.135-5.641-14.729l12.152-56.771L8.772,98.036
		c-4.257-3.821-5.861-9.793-4.093-15.233s6.575-9.327,12.265-9.916l57.749-5.985L98.23,13.829c2.318-5.228,7.502-8.6,13.221-8.6
		c5.719,0,10.902,3.371,13.221,8.6l23.538,53.073l57.749,5.985c5.69,0.59,10.497,4.476,12.265,9.916s0.163,11.412-4.093,15.233
		l-43.202,38.785l12.152,56.771c1.198,5.593-1.014,11.367-5.641,14.729C174.916,210.155,171.932,211.084,168.937,211.084z
		 M111.451,148.855c2.504,0,5.007,0.649,7.25,1.948l29.268,16.954l-7.08-33.075c-1.085-5.066,0.625-10.328,4.481-13.791
		l25.169-22.596l-33.644-3.486c-5.155-0.535-9.63-3.785-11.73-8.523l-13.713-30.92L97.738,86.289
		c-2.1,4.737-6.575,7.988-11.73,8.523l-33.644,3.487l25.169,22.596c3.856,3.463,5.565,8.723,4.481,13.791l-7.08,33.075
		l29.268-16.954C106.444,149.506,108.948,148.855,111.451,148.855z"/>
	<path style="fill:#FFC61B;" d="M437.64,275.126h-74.351c-7.988,0-14.463-6.475-14.463-14.463s6.475-14.463,14.463-14.463h74.351
		c7.988,0,14.463,6.475,14.463,14.463S445.628,275.126,437.64,275.126z"/>
	<path style="fill:#FFC61B;" d="M400.465,272.849c-7.988,0-14.463-6.475-14.463-14.463V115.075c0-7.988,6.475-14.463,14.463-14.463
		c7.988,0,14.463,6.475,14.463,14.463v143.311C414.928,266.374,408.453,272.849,400.465,272.849z"/>
</g>
<polygon style="fill:#FEE187;" points="400.549,19.692 427.482,80.424 493.565,87.274 444.13,131.656 458.036,196.62 
	400.549,163.319 343.062,196.62 356.968,131.656 307.531,87.274 373.614,80.424 "/>
<path style="fill:#FFC61B;" d="M458.035,211.084c-2.496,0-4.999-0.645-7.249-1.948l-50.237-29.102l-50.237,29.102
	c-4.951,2.868-11.124,2.547-15.752-0.814c-4.627-3.363-6.84-9.135-5.641-14.729l12.152-56.771L297.87,98.036
	c-4.257-3.821-5.861-9.793-4.093-15.233c1.767-5.44,6.575-9.327,12.265-9.916l57.749-5.985l23.538-53.073
	c2.318-5.228,7.502-8.6,13.221-8.6s10.902,3.371,13.221,8.6l23.538,53.073l57.749,5.985c5.69,0.59,10.497,4.476,12.265,9.916
	c1.767,5.44,0.163,11.412-4.093,15.233l-43.202,38.785l12.152,56.771c1.198,5.593-1.014,11.367-5.641,14.729
	C464.014,210.155,461.029,211.084,458.035,211.084z M400.549,148.855c2.504,0,5.007,0.649,7.25,1.948l29.268,16.954l-7.08-33.075
	c-1.085-5.066,0.625-10.328,4.481-13.791l25.169-22.596l-33.644-3.487c-5.155-0.535-9.63-3.785-11.73-8.523l-13.713-30.92
	l-13.716,30.923c-2.1,4.737-6.575,7.988-11.73,8.523l-33.644,3.487l25.169,22.596c3.856,3.463,5.565,8.723,4.481,13.791
	l-7.08,33.075l29.268-16.954C395.54,149.506,398.045,148.855,400.549,148.855z"/>
</svg>